<?xml version="1.0" standalone="no"?>
<!DOCTYPE svg PUBLIC "-//W3C//DTD SVG 20010904//EN"
 "http://www.w3.org/TR/2001/REC-SVG-20010904/DTD/svg10.dtd">
<svg version="1.0" xmlns="http://www.w3.org/2000/svg"
 width="2707.000000pt" height="2700.000000pt" viewBox="0 0 2707.000000 2700.000000"
 preserveAspectRatio="xMidYMid meet">

<g transform="translate(0.000000,2700.000000) scale(0.100000,-0.100000)"
fill="#000000" stroke="none">
<path d="M13025 26709 c-2824 -118 -5517 -1129 -7715 -2896 -625 -502 -1238
-1095 -1760 -1703 -1229 -1431 -2145 -3128 -2664 -4931 -688 -2389 -688 -4940
-1 -7325 59 -203 143 -474 150 -482 6 -7 85 39 85 49 0 6 -22 81 -49 167 -822
2598 -797 5455 68 8062 753 2268 2109 4276 3946 5846 1148 980 2483 1765 3905
2297 2795 1044 5888 1100 8720 158 2315 -770 4357 -2164 5931 -4047 942 -1128
1697 -2425 2212 -3804 1101 -2947 1101 -6223 0 -9170 -1035 -2771 -2993 -5124
-5534 -6651 -1634 -982 -3455 -1593 -5349 -1793 -786 -83 -1555 -97 -2340 -40
-3550 253 -6828 1936 -9121 4680 -130 156 -398 496 -473 601 l-37 51 -45 -25
c-30 -17 -42 -29 -36 -37 5 -6 58 -76 118 -156 541 -722 1235 -1461 1944
-2070 1094 -939 2352 -1702 3690 -2238 2715 -1088 5746 -1238 8569 -426 1803
519 3500 1435 4931 2664 491 421 1009 939 1430 1430 1229 1432 2145 3127 2664
4931 1009 3505 525 7285 -1331 10403 -1491 2503 -3759 4445 -6453 5524 -1570
629 -3252 948 -4950 940 -173 0 -400 -5 -505 -9z"/>
<path d="M16975 24355 c-332 -62 -610 -268 -759 -562 -344 -677 120 -1486 876
-1530 419 -24 809 198 997 567 58 114 85 195 106 314 63 366 -84 752 -375 989
-108 87 -270 169 -405 203 -128 33 -321 41 -440 19z"/>
<path d="M13081 24059 c-3144 -143 -6053 -1683 -7950 -4209 -1413 -1882 -2149
-4154 -2108 -6505 23 -1244 242 -2400 674 -3550 289 -770 756 -1668 1247
-2400 1408 -2099 3546 -3633 5991 -4299 1382 -376 2893 -464 4328 -250 2763
411 5234 1896 6918 4159 1713 2301 2404 5224 1913 8085 -182 1063 -544 2133
-1040 3071 -520 985 -949 1623 -1575 2339 -176 201 -671 700 -869 876 -480
427 -1010 823 -1507 1127 l-92 56 -24 -44 -25 -44 116 -72 c316 -194 796 -537
1096 -783 834 -684 1554 -1485 2138 -2376 308 -469 681 -1147 908 -1649 430
-952 716 -1961 845 -2986 60 -485 79 -795 79 -1325 0 -647 -39 -1134 -139
-1731 -354 -2114 -1342 -4051 -2850 -5588 -1362 -1387 -3068 -2362 -4945
-2826 -1374 -339 -2843 -395 -4243 -159 -1580 265 -3044 874 -4352 1810 -475
340 -861 669 -1301 1108 -597 598 -1059 1178 -1495 1881 -282 453 -619 1088
-819 1545 -701 1597 -989 3345 -840 5099 114 1334 476 2611 1080 3806 1148
2271 3087 4051 5444 4997 1666 668 3481 892 5294 652 107 -14 195 -24 197 -22
2 1 6 24 10 49 l7 46 -159 21 c-659 89 -1316 120 -1952 91z"/>
<path d="M13015 21864 c-269 -19 -359 -27 -475 -40 -1480 -164 -2861 -710
-4052 -1602 -535 -400 -1039 -883 -1463 -1402 -708 -867 -1229 -1865 -1539
-2945 -77 -266 -80 -280 -106 -425 -11 -63 -25 -131 -30 -150 -30 -113 -99
-510 -124 -710 -107 -857 -74 -1762 95 -2616 368 -1864 1361 -3535 2829 -4760
471 -393 1020 -755 1540 -1014 69 -34 179 -93 245 -130 66 -37 158 -82 205
-100 47 -18 121 -48 165 -67 44 -19 125 -49 180 -68 55 -18 180 -63 277 -99
98 -36 208 -73 246 -81 38 -8 125 -30 193 -49 575 -162 1156 -259 1776 -297
253 -15 958 -6 1183 15 723 69 1318 194 1956 410 1695 574 3179 1701 4186
3181 945 1387 1438 2989 1438 4670 0 1679 -494 3286 -1438 4670 -1016 1491
-2509 2621 -4217 3191 -633 211 -1228 334 -1935 400 -163 15 -990 28 -1135 18z
m830 -484 c1577 -84 3037 -612 4294 -1555 494 -371 956 -814 1358 -1303 1621
-1970 2165 -4639 1451 -7117 -430 -1496 -1332 -2859 -2553 -3860 -1133 -930
-2514 -1523 -3970 -1705 -265 -33 -514 -50 -825 -57 -783 -16 -1569 87 -2320
304 -181 52 -531 166 -610 198 -30 12 -100 39 -155 60 -55 21 -114 46 -131 56
-17 11 -38 19 -46 19 -40 0 -320 133 -443 211 -22 14 -66 37 -97 51 -89 41
-434 250 -658 399 -477 317 -843 621 -1260 1045 -585 595 -1037 1228 -1411
1974 -447 894 -700 1794 -796 2840 -25 274 -25 1021 0 1290 32 338 65 577 126
895 16 83 34 177 39 210 26 145 62 296 91 375 17 47 67 191 110 320 333 997
823 1858 1514 2663 146 171 495 527 667 682 975 876 2106 1477 3368 1789 723
179 1519 255 2257 216z"/>
<path d="M10221 18884 c-136 -29 -286 -123 -387 -241 -80 -94 -142 -191 -250
-386 -183 -329 -271 -438 -401 -499 -90 -42 -177 -43 -358 -3 -115 26 -150 29
-305 29 -183 1 -223 -5 -352 -54 -85 -32 -204 -113 -283 -195 -96 -98 -171
-210 -320 -480 -153 -276 -224 -383 -329 -493 -112 -117 -172 -155 -282 -176
-537 -105 -798 -266 -853 -525 -17 -79 1 -187 59 -355 26 -78 55 -154 63 -171
31 -59 118 -294 137 -370 30 -116 27 -250 -6 -357 -59 -187 -135 -304 -363
-561 -128 -144 -164 -193 -204 -277 -27 -56 -31 -75 -30 -145 2 -144 58 -270
183 -407 35 -39 140 -136 234 -216 329 -282 417 -399 462 -615 11 -53 14 -148
12 -445 -3 -367 -2 -379 20 -462 91 -331 330 -517 780 -604 103 -20 494 -76
531 -76 11 0 22 -51 55 -270 13 -91 37 -203 51 -250 75 -238 217 -408 430
-515 120 -60 252 -92 464 -113 167 -16 174 -17 182 -41 6 -13 32 -135 59 -270
62 -303 89 -401 145 -517 120 -248 244 -294 995 -369 140 -14 278 -32 305 -39
28 -8 84 -18 125 -21 41 -3 118 -12 170 -20 52 -7 133 -16 180 -20 89 -6 117
-10 340 -50 74 -13 272 -42 440 -65 168 -23 393 -57 500 -76 436 -78 825 -136
1522 -229 776 -103 1213 -155 1353 -161 381 -17 935 69 1464 227 73 22 278 93
455 158 176 65 385 140 464 166 78 25 142 49 142 52 0 2 -53 64 -118 136 -285
319 -423 512 -538 752 -151 315 -106 452 162 495 199 32 476 -86 764 -325 204
-169 415 -391 709 -745 85 -102 159 -191 166 -198 10 -11 34 19 127 160 134
203 211 303 438 568 343 402 488 603 617 855 171 337 259 594 429 1265 294
1153 312 1449 96 1548 -49 22 -63 24 -146 20 -54 -3 -117 -14 -156 -27 -95
-32 -263 -117 -440 -221 -341 -202 -511 -280 -662 -301 -71 -10 -92 -10 -148
5 -137 35 -296 129 -383 226 -77 85 -84 149 -28 266 60 125 166 245 431 489
193 177 550 532 694 690 243 266 410 500 537 750 80 158 112 259 112 351 0 43
-7 65 -39 119 l-39 67 -100 -5 c-177 -10 -306 -68 -901 -409 -555 -318 -826
-457 -1115 -571 -117 -46 -349 -121 -355 -114 -5 5 36 189 92 412 65 255 151
510 392 1150 274 732 313 856 316 995 1 89 -16 127 -83 177 -37 28 -50 33 -99
33 -112 -1 -181 -50 -437 -311 -201 -205 -475 -511 -1070 -1195 -669 -769
-1004 -1139 -1028 -1139 -17 0 -174 198 -262 330 -220 331 -365 647 -690 1500
-267 699 -423 1030 -650 1375 -205 313 -457 591 -722 797 -275 215 -610 374
-923 440 -108 23 -150 27 -310 27 -149 1 -198 -2 -250 -17 -104 -29 -235 -100
-375 -203 -168 -124 -230 -156 -316 -162 -128 -9 -252 40 -515 205 -202 127
-270 164 -367 203 -144 58 -286 73 -416 44z m2599 -640 c410 -68 728 -309
1061 -806 228 -340 342 -577 729 -1523 385 -942 593 -1353 864 -1715 92 -123
310 -343 405 -409 67 -46 79 -51 129 -51 100 0 147 35 413 300 245 245 497
518 1059 1150 183 206 335 377 337 379 1 2 5 2 8 -1 3 -3 -14 -56 -39 -119
-133 -347 -248 -735 -376 -1279 -48 -202 -120 -540 -120 -561 0 -22 301 -1
464 32 132 27 385 111 563 188 271 116 606 292 1096 575 103 60 189 107 192
104 3 -2 -37 -56 -89 -119 -109 -133 -333 -355 -671 -665 -378 -348 -494 -479
-580 -658 -55 -115 -74 -186 -81 -311 -13 -208 34 -336 175 -476 197 -197 542
-367 796 -394 201 -22 474 78 893 328 171 102 301 171 308 164 13 -13 -86
-386 -176 -662 -21 -66 -77 -275 -124 -465 -141 -570 -222 -780 -417 -1077
-92 -138 -144 -207 -414 -543 -121 -151 -234 -294 -250 -317 -17 -24 -33 -42
-37 -40 -3 1 -57 58 -119 127 -504 559 -917 833 -1326 880 -308 36 -649 -113
-802 -350 -23 -35 -53 -100 -68 -144 -23 -71 -26 -96 -26 -211 0 -107 5 -147
26 -227 50 -188 155 -402 318 -645 l69 -102 -98 -30 c-219 -68 -654 -194 -749
-217 -169 -41 -303 -55 -578 -61 -402 -9 -507 0 -1572 132 -929 115 -1485 198
-1843 275 -228 49 -605 116 -835 149 -273 39 -452 56 -830 81 -357 23 -480 35
-585 56 -93 19 -126 36 -150 77 -38 62 -90 243 -150 527 -88 413 -146 539
-260 564 -14 3 -117 15 -230 26 -112 11 -231 28 -265 36 -171 44 -298 168
-349 343 -9 30 -27 130 -41 224 -31 206 -38 237 -77 354 l-31 91 -111 21 c-61
11 -217 34 -346 52 -129 17 -285 44 -347 59 -199 50 -314 131 -365 258 -23 56
-23 64 -23 437 -1 412 -5 455 -61 604 -78 206 -200 356 -504 616 -168 144
-214 189 -254 249 -47 71 -42 82 117 260 246 276 362 470 424 706 29 115 33
281 9 404 -20 101 -85 289 -170 488 -37 86 -72 185 -78 219 -9 55 -9 64 9 87
50 68 223 136 489 192 82 17 172 42 199 54 74 34 202 134 291 229 129 137 183
218 413 628 185 329 283 408 518 417 96 4 133 0 250 -24 114 -24 161 -29 273
-28 118 0 145 4 216 27 106 35 211 105 301 199 90 96 149 184 270 401 124 223
188 320 257 385 79 75 131 96 221 90 90 -6 166 -40 370 -166 314 -195 512
-272 694 -272 167 0 276 44 610 243 299 179 389 210 576 202 61 -3 153 -13
205 -21z"/>
<path d="M15034 12965 c-253 -55 -401 -276 -364 -545 33 -241 221 -400 475
-400 137 0 238 38 331 122 100 92 144 199 144 351 -1 108 -11 160 -48 235 -59
122 -197 219 -342 242 -82 13 -120 12 -196 -5z"/>
<path d="M1708 8626 c-254 -45 -485 -181 -644 -380 -70 -88 -149 -233 -182
-336 -160 -495 67 -1035 533 -1266 639 -316 1396 70 1510 771 89 545 -249
1054 -793 1196 -100 26 -316 34 -424 15z"/>
</g>
</svg>
